<?xml version="1.0" encoding="UTF-8"?>
<svg id="Layer_2" data-name="Layer 2" xmlns="http://www.w3.org/2000/svg" viewBox="0 0 120 60">
  <defs>
    <style>
      .cls-1 {
        fill: #44c8f8;
      }

      .cls-1, .cls-2, .cls-3, .cls-4 {
        stroke-width: 0px;
      }

      .cls-2 {
        fill: none;
      }

      .cls-3 {
        fill: #f2f2f2;
      }

      .cls-4 {
        opacity: .85;
      }
    </style>
  </defs>
  <g id="Layer_1-2" data-name="Layer 1">
    <g>
      <rect class="cls-2" width="120" height="60"/>
      <polygon class="cls-1" points="104.26 56.67 15.74 56.67 6.67 30 15.74 3.33 104.26 3.33 113.33 30 104.26 56.67"/>
      <polygon class="cls-4" points="19.32 51.67 11.95 30 19.32 8.33 100.68 8.33 108.05 30 100.68 51.67 19.32 51.67"/>
      <g>
        <path class="cls-3" d="m40.53,42.37v-24.74h10.73c1.88,0,3.47.25,4.75.76,1.29.51,2.25,1.22,2.91,2.15.66.93.98,2.02.98,3.27,0,.91-.2,1.74-.6,2.49-.4.75-.96,1.38-1.67,1.88-.72.5-1.55.85-2.51,1.04v.24c1.06.04,2.03.31,2.9.8.87.5,1.56,1.18,2.08,2.04.52.87.77,1.88.77,3.05,0,1.35-.35,2.56-1.06,3.61-.71,1.06-1.71,1.88-3,2.49-1.3.6-2.84.91-4.64.91h-11.64Zm6.72-14.74h2.75c.59,0,1.11-.09,1.56-.28.45-.19.8-.45,1.06-.8.25-.35.38-.78.38-1.29,0-.77-.27-1.35-.82-1.76-.55-.41-1.24-.61-2.08-.61h-2.85v4.74Zm0,9.37h3.14c1.13,0,1.97-.21,2.54-.63.56-.42.85-1.05.85-1.88,0-.58-.13-1.07-.4-1.47-.27-.4-.64-.71-1.13-.92-.49-.21-1.07-.31-1.76-.31h-3.24v5.22Z"/>
        <path class="cls-3" d="m63.24,42.37v-24.74h6.72v19.33h10v5.41h-16.72Z"/>
      </g>
    </g>
  </g>
</svg>