<?xml version="1.0" encoding="UTF-8"?>
<svg id="Layer_2" data-name="Layer 2" xmlns="http://www.w3.org/2000/svg" viewBox="0 0 120 60">
  <defs>
    <style>
      .cls-1 {
        fill: #ff9920;
      }

      .cls-1, .cls-2, .cls-3, .cls-4 {
        stroke-width: 0px;
      }

      .cls-2 {
        fill: none;
      }

      .cls-3 {
        fill: #f2f2f2;
      }

      .cls-4 {
        opacity: .85;
      }
    </style>
  </defs>
  <g id="Layer_1-2" data-name="Layer 1">
    <g>
      <rect class="cls-2" width="120" height="60"/>
      <polygon class="cls-1" points="104.26 56.67 15.74 56.67 6.67 30 15.74 3.33 104.26 3.33 113.33 30 104.26 56.67"/>
      <polygon class="cls-4" points="19.32 51.67 11.95 30 19.32 8.33 100.68 8.33 108.05 30 100.68 51.67 19.32 51.67"/>
      <g>
        <path class="cls-3" d="m58.86,26.91h-6.81c-.05-.56-.17-1.07-.38-1.53-.21-.46-.49-.86-.85-1.19s-.79-.59-1.3-.77c-.51-.18-1.08-.27-1.73-.27-1.13,0-2.08.27-2.86.82-.78.55-1.37,1.33-1.76,2.36-.4,1.02-.6,2.25-.6,3.68,0,1.51.2,2.78.61,3.8.41,1.02,1,1.78,1.77,2.29.77.51,1.7.77,2.79.77.62,0,1.18-.08,1.67-.24.49-.16.92-.38,1.28-.68s.66-.66.89-1.08.38-.9.46-1.43l6.81.05c-.08,1.05-.38,2.11-.88,3.2-.51,1.08-1.23,2.08-2.16,3-.93.91-2.08,1.65-3.45,2.2s-2.96.83-4.77.83c-2.27,0-4.31-.49-6.11-1.46-1.8-.97-3.22-2.41-4.26-4.3-1.04-1.89-1.56-4.21-1.56-6.95s.53-5.08,1.59-6.96c1.06-1.89,2.5-3.32,4.3-4.29,1.8-.97,3.82-1.46,6.04-1.46,1.56,0,3,.21,4.31.64s2.46,1.05,3.46,1.87,1.79,1.82,2.39,3.01c.6,1.19.97,2.56,1.1,4.09Z"/>
        <path class="cls-3" d="m61.91,42.37v-24.74h6.72v9.66h8.89v-9.66h6.71v24.74h-6.71v-9.66h-8.89v9.66h-6.72Z"/>
      </g>
    </g>
  </g>
</svg>