<?xml version="1.0" encoding="UTF-8"?>
<svg id="Layer_2" data-name="Layer 2" xmlns="http://www.w3.org/2000/svg" viewBox="0 0 120 60">
  <defs>
    <style>
      .cls-1 {
        fill: #44c8f8;
      }

      .cls-1, .cls-2, .cls-3, .cls-4 {
        stroke-width: 0px;
      }

      .cls-2 {
        fill: none;
      }

      .cls-3 {
        fill: #f2f2f2;
      }

      .cls-4 {
        opacity: .85;
      }
    </style>
  </defs>
  <g id="Layer_1-2" data-name="Layer 1">
    <g>
      <rect class="cls-2" width="120" height="60"/>
      <polygon class="cls-1" points="104.26 56.67 15.74 56.67 6.67 30 15.74 3.33 104.26 3.33 113.33 30 104.26 56.67"/>
      <polygon class="cls-4" points="19.32 51.67 11.95 30 19.32 8.33 100.68 8.33 108.05 30 100.68 51.67 19.32 51.67"/>
      <g>
        <path class="cls-3" d="m49.32,17.63h6.62v16.96c0,1.61-.41,3.03-1.21,4.25-.8,1.22-1.91,2.17-3.31,2.85-1.41.68-3.02,1.02-4.85,1.02-1.59,0-3.04-.28-4.35-.83-1.31-.55-2.36-1.42-3.14-2.61-.78-1.19-1.17-2.73-1.16-4.63h6.72c.02.62.13,1.14.32,1.57.19.43.46.75.8.96.34.21.76.32,1.25.32s.92-.11,1.26-.33c.34-.22.6-.54.78-.97.18-.43.27-.96.28-1.6v-16.96Z"/>
        <path class="cls-3" d="m68.65,42.37h-9.52v-24.74h9.42c2.54,0,4.75.49,6.6,1.48,1.86.99,3.29,2.4,4.3,4.25s1.52,4.06,1.52,6.64-.5,4.79-1.51,6.64-2.43,3.27-4.28,4.25c-1.84.99-4.02,1.48-6.54,1.48Zm-2.8-5.7h2.56c1.22,0,2.27-.2,3.13-.59.87-.39,1.53-1.08,1.98-2.04s.68-2.31.68-4.03-.23-3.07-.69-4.03c-.46-.97-1.14-1.65-2.03-2.04-.89-.39-1.98-.59-3.27-.59h-2.37v13.34Z"/>
      </g>
    </g>
  </g>
</svg>