<?xml version="1.0" encoding="UTF-8"?>
<svg id="Layer_2" data-name="Layer 2" xmlns="http://www.w3.org/2000/svg" viewBox="0 0 120 60">
  <defs>
    <style>
      .cls-1 {
        fill: none;
      }

      .cls-1, .cls-2, .cls-3, .cls-4 {
        stroke-width: 0px;
      }

      .cls-2 {
        fill: #09bf09;
      }

      .cls-3 {
        fill: #f2f2f2;
      }

      .cls-4 {
        opacity: .85;
      }
    </style>
  </defs>
  <g id="Layer_1-2" data-name="Layer 1">
    <g>
      <rect class="cls-1" y="0" width="120" height="60"/>
      <polygon class="cls-2" points="104.26 56.67 15.74 56.67 6.67 30 15.74 3.33 104.26 3.33 113.33 30 104.26 56.67"/>
      <polygon class="cls-4" points="19.32 51.67 11.95 30 19.32 8.33 100.68 8.33 108.05 30 100.68 51.67 19.32 51.67"/>
      <g>
        <path class="cls-3" d="m38.84,42.37v-24.74h6.72v19.33h10v5.41h-16.72Z"/>
        <path class="cls-3" d="m81.26,30c0,2.75-.54,5.08-1.61,6.96-1.07,1.89-2.52,3.32-4.34,4.29-1.82.97-3.85,1.46-6.09,1.46s-4.29-.49-6.11-1.47-3.26-2.41-4.32-4.3c-1.07-1.89-1.6-4.2-1.6-6.94s.53-5.08,1.6-6.96c1.07-1.89,2.51-3.32,4.32-4.29,1.82-.97,3.85-1.46,6.11-1.46s4.27.49,6.09,1.46c1.82.97,3.27,2.4,4.34,4.29,1.07,1.89,1.61,4.21,1.61,6.96Zm-6.91,0c0-1.48-.2-2.73-.59-3.75-.39-1.02-.97-1.79-1.73-2.32-.76-.53-1.7-.79-2.81-.79s-2.05.26-2.81.79c-.76.53-1.34,1.3-1.73,2.32-.39,1.02-.59,2.27-.59,3.75s.2,2.73.59,3.75.97,1.79,1.73,2.32c.76.53,1.7.79,2.81.79s2.05-.26,2.81-.79c.76-.53,1.34-1.3,1.73-2.32s.59-2.27.59-3.75Z"/>
      </g>
    </g>
  </g>
</svg>