<?xml version="1.0" encoding="UTF-8"?>
<svg id="Layer_2" data-name="Layer 2" xmlns="http://www.w3.org/2000/svg" viewBox="0 0 120 60">
  <defs>
    <style>
      .cls-1 {
        fill: none;
      }

      .cls-1, .cls-2, .cls-3, .cls-4 {
        stroke-width: 0px;
      }

      .cls-2 {
        fill: #f2e520;
      }

      .cls-3 {
        fill: #f2f2f2;
      }

      .cls-4 {
        opacity: .85;
      }
    </style>
  </defs>
  <g id="Layer_1-2" data-name="Layer 1">
    <g>
      <rect class="cls-1" width="120" height="60"/>
      <polygon class="cls-2" points="104.26 56.67 15.74 56.67 6.67 30 15.74 3.33 104.26 3.33 113.33 30 104.26 56.67"/>
      <polygon class="cls-4" points="19.32 51.67 11.95 30 19.32 8.33 100.68 8.33 108.05 30 100.68 51.67 19.32 51.67"/>
      <g>
        <path class="cls-3" d="m41.86,42.37v-24.74h10.68c1.84,0,3.44.36,4.82,1.09,1.38.72,2.45,1.74,3.21,3.06.76,1.31,1.15,2.85,1.15,4.6s-.39,3.31-1.18,4.6c-.79,1.3-1.88,2.3-3.3,3-1.41.7-3.06,1.05-4.95,1.05h-6.38v-5.22h5.03c.79,0,1.46-.14,2.02-.42.56-.28.99-.67,1.29-1.19.3-.52.45-1.12.45-1.82s-.15-1.31-.45-1.82-.73-.89-1.29-1.16c-.56-.27-1.23-.4-2.02-.4h-2.37v19.38h-6.72Z"/>
        <path class="cls-3" d="m63.5,23.04v-5.41h15.32v5.41h-15.32Zm0,19.33v-5.41h15.32v5.41h-15.32Zm11.02-24.74v24.74h-6.72v-24.74h6.72Z"/>
      </g>
    </g>
  </g>
</svg>