<?xml version="1.0" encoding="UTF-8"?>
<svg id="Layer_2" data-name="Layer 2" xmlns="http://www.w3.org/2000/svg" viewBox="0 0 120 60">
  <defs>
    <style>
      .cls-1 {
        fill: #44c8f8;
      }

      .cls-1, .cls-2, .cls-3, .cls-4 {
        stroke-width: 0px;
      }

      .cls-2 {
        fill: none;
      }

      .cls-3 {
        fill: #f2f2f2;
      }

      .cls-4 {
        opacity: .85;
      }
    </style>
  </defs>
  <g id="Layer_1-2" data-name="Layer 1">
    <g>
      <rect class="cls-2" width="120" height="60"/>
      <rect class="cls-1" x="6.67" y="3.33" width="106.67" height="53.33" rx="26.67" ry="26.67"/>
      <path class="cls-4" d="m33.33,51.67c-11.95,0-21.67-9.72-21.67-21.67s9.72-21.67,21.67-21.67h53.33c11.95,0,21.67,9.72,21.67,21.67s-9.72,21.67-21.67,21.67h-53.33Z"/>
      <g>
        <path class="cls-3" d="m30.36,42.37h-7.25l8.17-24.74h9.18l8.17,24.74h-7.25l-5.41-17.93h-.19l-5.41,17.93Zm-1.35-9.76h13.63v5.02h-13.63v-5.02Z"/>
        <path class="cls-3" d="m50.99,42.37v-24.74h10.68c1.84,0,3.44.36,4.82,1.09,1.38.72,2.45,1.74,3.21,3.06.76,1.31,1.15,2.85,1.15,4.6s-.39,3.31-1.18,4.6c-.79,1.3-1.88,2.3-3.3,3-1.41.7-3.06,1.05-4.95,1.05h-6.38v-5.22h5.02c.79,0,1.46-.14,2.02-.42.56-.28.99-.67,1.29-1.19.3-.52.45-1.12.45-1.82s-.15-1.31-.45-1.82c-.3-.5-.73-.89-1.29-1.16-.56-.27-1.23-.4-2.02-.4h-2.37v19.38h-6.72Z"/>
        <path class="cls-3" d="m80.51,17.63l4.06,7.2h.19l4.11-7.2h7.49l-7.39,12.37,7.68,12.37h-7.68l-4.2-7.34h-.19l-4.21,7.34h-7.63l7.59-12.37-7.34-12.37h7.54Z"/>
      </g>
    </g>
  </g>
</svg>