<?xml version="1.0" encoding="UTF-8"?>
<svg id="Layer_2" data-name="Layer 2" xmlns="http://www.w3.org/2000/svg" viewBox="0 0 120 60">
  <defs>
    <style>
      .cls-1 {
        fill: #0f8;
      }

      .cls-1, .cls-2, .cls-3, .cls-4 {
        stroke-width: 0px;
      }

      .cls-2 {
        fill: none;
      }

      .cls-3 {
        fill: #f2f2f2;
      }

      .cls-4 {
        opacity: .85;
      }
    </style>
  </defs>
  <g id="Layer_1-2" data-name="Layer 1">
    <g>
      <rect class="cls-2" width="120" height="60"/>
      <rect class="cls-1" x="6.67" y="3.33" width="106.67" height="53.33" rx="26.67" ry="26.67"/>
      <path class="cls-4" d="m33.33,51.67c-11.95,0-21.67-9.72-21.67-21.67s9.72-21.67,21.67-21.67h53.33c11.95,0,21.67,9.72,21.67,21.67s-9.72,21.67-21.67,21.67h-53.33Z"/>
      <g>
        <path class="cls-3" d="m26.98,23.04v-5.41h15.32v5.41h-15.32Zm0,19.33v-5.41h15.32v5.41h-15.32Zm11.02-24.74v24.74h-6.72v-24.74h6.72Z"/>
        <path class="cls-3" d="m51.62,42.37v-4.83l9.23-7.63c.61-.51,1.14-.98,1.58-1.43s.78-.91,1.01-1.38c.24-.48.36-1,.36-1.58,0-.64-.13-1.18-.4-1.63-.27-.45-.64-.8-1.12-1.04s-1.02-.37-1.64-.37-1.17.12-1.64.37c-.47.25-.84.62-1.09,1.1-.26.48-.39,1.07-.39,1.76h-6.38c0-1.74.39-3.24,1.17-4.49.78-1.26,1.88-2.22,3.31-2.9,1.43-.68,3.1-1.01,5.01-1.01s3.7.32,5.15.95c1.45.63,2.58,1.52,3.37,2.66.79,1.14,1.19,2.48,1.19,4.02,0,.95-.2,1.89-.59,2.83-.39.94-1.1,1.97-2.13,3.11-1.02,1.14-2.48,2.49-4.36,4.06l-2.32,1.93v.15h9.66v5.36h-18.99Z"/>
        <path class="cls-3" d="m73.6,42.37v-4.83l9.23-7.63c.61-.51,1.14-.98,1.58-1.43.44-.45.78-.91,1.01-1.38s.36-1,.36-1.58c0-.64-.14-1.18-.41-1.63-.27-.45-.64-.8-1.12-1.04s-1.02-.37-1.64-.37-1.17.12-1.64.37c-.47.25-.84.62-1.09,1.1-.26.48-.39,1.07-.39,1.76h-6.38c0-1.74.39-3.24,1.17-4.49s1.88-2.22,3.31-2.9c1.43-.68,3.1-1.01,5.01-1.01s3.7.32,5.15.95c1.45.63,2.58,1.52,3.37,2.66.79,1.14,1.19,2.48,1.19,4.02,0,.95-.2,1.89-.59,2.83-.39.94-1.1,1.97-2.13,3.11-1.02,1.14-2.48,2.49-4.36,4.06l-2.32,1.93v.15h9.66v5.36h-18.99Z"/>
      </g>
    </g>
  </g>
</svg>