<?xml version="1.0" encoding="UTF-8"?>
<svg id="Layer_2" data-name="Layer 2" xmlns="http://www.w3.org/2000/svg" viewBox="0 0 120 60">
  <defs>
    <style>
      .cls-1 {
        fill: none;
      }

      .cls-1, .cls-2, .cls-3, .cls-4 {
        stroke-width: 0px;
      }

      .cls-2 {
        fill: #f2e520;
      }

      .cls-3 {
        fill: #f2f2f2;
      }

      .cls-4 {
        opacity: .85;
      }
    </style>
  </defs>
  <g id="Layer_1-2" data-name="Layer 1">
    <g>
      <rect class="cls-1" width="120" height="60"/>
      <rect class="cls-2" x="6.67" y="3.33" width="106.67" height="53.33" rx="26.67" ry="26.67"/>
      <path class="cls-4" d="m33.33,51.67c-11.95,0-21.67-9.72-21.67-21.67s9.72-21.67,21.67-21.67h53.33c11.95,0,21.67,9.72,21.67,21.67s-9.72,21.67-21.67,21.67h-53.33Z"/>
      <g>
        <path class="cls-3" d="m24.61,23.04v-5.41h15.32v5.41h-15.32Zm0,19.33v-5.41h15.32v5.41h-15.32Zm11.02-24.74v24.74h-6.72v-24.74h6.72Z"/>
        <path class="cls-3" d="m49.01,38.5v-5.22l9.95-15.65h4.74v6.96h-2.71l-5.36,8.5v.19h14.69v5.22h-21.31Zm12.03,3.87v-5.46l.15-2.27v-17.01h6.28v24.74h-6.43Z"/>
        <path class="cls-3" d="m83.89,43.05c-2.25,0-4.19-.53-5.82-1.56s-2.9-2.52-3.78-4.46c-.89-1.94-1.32-4.27-1.32-6.98,0-2.72.45-5.03,1.33-6.93.88-1.9,2.14-3.35,3.77-4.34,1.63-.99,3.57-1.49,5.82-1.49s4.19.5,5.82,1.49,2.89,2.44,3.78,4.34c.89,1.9,1.33,4.21,1.32,6.92,0,2.73-.44,5.07-1.33,7.01-.89,1.94-2.14,3.42-3.77,4.45-1.63,1.03-3.57,1.54-5.82,1.54Zm0-5.46c1.16,0,2.11-.61,2.86-1.82.75-1.21,1.11-3.12,1.11-5.72,0-1.7-.17-3.09-.51-4.17-.34-1.08-.8-1.88-1.4-2.4-.6-.52-1.28-.78-2.05-.78-1.16,0-2.11.59-2.84,1.76-.73,1.18-1.11,3.04-1.12,5.58,0,1.73.16,3.16.5,4.27.34,1.12.81,1.94,1.41,2.47.6.53,1.29.8,2.06.8Z"/>
      </g>
    </g>
  </g>
</svg>