<?xml version="1.0" encoding="UTF-8"?>
<svg id="Layer_2" data-name="Layer 2" xmlns="http://www.w3.org/2000/svg" viewBox="0 0 120 60">
  <defs>
    <style>
      .cls-1 {
        fill: #ff6c6c;
      }

      .cls-1, .cls-2, .cls-3, .cls-4 {
        stroke-width: 0px;
      }

      .cls-2 {
        fill: none;
      }

      .cls-3 {
        fill: #f2f2f2;
      }

      .cls-4 {
        opacity: .85;
      }
    </style>
  </defs>
  <g id="Layer_1-2" data-name="Layer 1">
    <g>
      <rect class="cls-2" width="120" height="60"/>
      <rect class="cls-1" x="6.67" y="3.33" width="106.67" height="53.33" rx="26.67" ry="26.67"/>
      <path class="cls-4" d="m33.33,51.67c-11.95,0-21.67-9.72-21.67-21.67s9.72-21.67,21.67-21.67h53.33c11.95,0,21.67,9.72,21.67,21.67s-9.72,21.67-21.67,21.67h-53.33Z"/>
      <g>
        <path class="cls-3" d="m25.09,23.04v-5.41h15.32v5.41h-15.32Zm0,19.33v-5.41h15.32v5.41h-15.32Zm11.02-24.74v24.74h-6.72v-24.74h6.72Z"/>
        <path class="cls-3" d="m49.49,38.5v-5.22l9.95-15.65h4.74v6.96h-2.71l-5.36,8.5v.19h14.69v5.22h-21.31Zm12.03,3.87v-5.46l.15-2.27v-17.01h6.28v24.74h-6.43Z"/>
        <path class="cls-3" d="m73.36,38.5v-5.22l9.95-15.65h4.73v6.96h-2.71l-5.36,8.5v.19h14.69v5.22h-21.31Zm12.03,3.87v-5.46l.14-2.27v-17.01h6.28v24.74h-6.43Z"/>
      </g>
    </g>
  </g>
</svg>