<?xml version="1.0" encoding="UTF-8"?>
<svg id="Layer_2" data-name="Layer 2" xmlns="http://www.w3.org/2000/svg" viewBox="0 0 120 60">
  <defs>
    <style>
      .cls-1 {
        fill: #ff9920;
      }

      .cls-1, .cls-2, .cls-3, .cls-4 {
        stroke-width: 0px;
      }

      .cls-2 {
        fill: none;
      }

      .cls-3 {
        fill: #f2f2f2;
      }

      .cls-4 {
        opacity: .85;
      }
    </style>
  </defs>
  <g id="Layer_1-2" data-name="Layer 1">
    <g>
      <rect class="cls-2" width="120" height="60"/>
      <rect class="cls-1" x="6.67" y="3.33" width="106.67" height="53.33" rx="26.67" ry="26.67"/>
      <path class="cls-4" d="m33.33,51.67c-11.95,0-21.67-9.72-21.67-21.67s9.72-21.67,21.67-21.67h53.33c11.95,0,21.67,9.72,21.67,21.67s-9.72,21.67-21.67,21.67h-53.33Z"/>
      <g>
        <path class="cls-3" d="m24.9,23.04v-5.41h15.32v5.41h-15.32Zm0,19.33v-5.41h15.32v5.41h-15.32Zm11.02-24.74v24.74h-6.72v-24.74h6.72Z"/>
        <path class="cls-3" d="m49.83,34.03c0-.93.12-1.84.35-2.72s.57-1.75,1-2.61c.43-.86.95-1.72,1.55-2.59l5.85-8.65h6.57l-5.65,8.31c.31-.05.64-.09.98-.13.34-.04.69-.06,1.05-.06,1.53,0,2.88.34,4.06,1.01,1.18.68,2.1,1.62,2.77,2.84.67,1.22,1,2.64,1,4.26,0,1.8-.42,3.37-1.24,4.69s-1.97,2.35-3.42,3.07c-1.45.72-3.1,1.08-4.95,1.08-1.74,0-3.36-.32-4.87-.95-1.51-.63-2.72-1.58-3.65-2.84-.93-1.26-1.39-2.83-1.39-4.72Zm6.62-.05c0,.68.13,1.28.4,1.8s.65.93,1.14,1.23,1.05.45,1.7.45,1.18-.15,1.66-.45c.48-.3.85-.71,1.12-1.23s.4-1.12.4-1.8-.14-1.28-.42-1.8c-.28-.52-.66-.93-1.14-1.23-.48-.3-1.03-.45-1.64-.45-.64,0-1.21.15-1.7.45-.49.3-.87.71-1.14,1.23s-.4,1.12-.4,1.8Z"/>
        <path class="cls-3" d="m83.12,42.88c-2.25,0-4.19-.53-5.82-1.56s-2.89-2.52-3.78-4.46c-.89-1.94-1.32-4.27-1.32-6.98,0-2.72.45-5.03,1.33-6.93.88-1.9,2.14-3.35,3.77-4.34,1.63-.99,3.57-1.49,5.82-1.49s4.19.5,5.82,1.49,2.89,2.44,3.78,4.34c.88,1.9,1.32,4.21,1.32,6.92,0,2.73-.44,5.07-1.33,7.01-.89,1.94-2.14,3.42-3.78,4.45s-3.57,1.54-5.82,1.54Zm0-5.46c1.16,0,2.11-.61,2.86-1.82.74-1.21,1.11-3.12,1.11-5.72,0-1.7-.17-3.09-.51-4.17s-.8-1.88-1.4-2.4c-.6-.52-1.28-.78-2.05-.78-1.16,0-2.11.59-2.84,1.76-.73,1.18-1.11,3.04-1.12,5.58,0,1.73.16,3.16.49,4.27s.81,1.94,1.41,2.47c.6.53,1.29.8,2.06.8Z"/>
      </g>
    </g>
  </g>
</svg>