<?xml version="1.0" encoding="UTF-8"?>
<svg id="Layer_2" data-name="Layer 2" xmlns="http://www.w3.org/2000/svg" viewBox="0 0 120 60">
  <defs>
    <style>
      .cls-1 {
        fill: #80aaff;
      }

      .cls-1, .cls-2, .cls-3, .cls-4 {
        stroke-width: 0px;
      }

      .cls-2 {
        fill: none;
      }

      .cls-3 {
        fill: #f2f2f2;
      }

      .cls-4 {
        opacity: .85;
      }
    </style>
  </defs>
  <g id="Layer_1-2" data-name="Layer 1">
    <g>
      <rect class="cls-2" width="120" height="60"/>
      <rect class="cls-1" x="6.67" y="3.33" width="106.67" height="53.33" rx="26.67" ry="26.67"/>
      <path class="cls-4" d="m33.33,51.67c-11.95,0-21.67-9.72-21.67-21.67s9.72-21.67,21.67-21.67h53.33c11.95,0,21.67,9.72,21.67,21.67s-9.72,21.67-21.67,21.67h-53.33Z"/>
      <g>
        <path class="cls-3" d="m26.56,23.04v-5.41h15.32v5.41h-15.32Zm0,19.33v-5.41h15.32v5.41h-15.32Zm11.02-24.74v24.74h-6.72v-24.74h6.72Z"/>
        <path class="cls-3" d="m51.5,34.2c0-.93.12-1.84.35-2.72.23-.88.57-1.75,1-2.61.44-.86.95-1.72,1.55-2.59l5.85-8.65h6.57l-5.65,8.31c.31-.05.64-.09.98-.13.34-.04.69-.06,1.05-.06,1.53,0,2.88.34,4.06,1.01,1.18.68,2.1,1.62,2.77,2.84.67,1.22,1,2.64,1,4.26,0,1.8-.42,3.37-1.24,4.69-.83,1.32-1.97,2.35-3.42,3.07-1.45.72-3.1,1.08-4.95,1.08-1.74,0-3.36-.32-4.87-.95-1.51-.63-2.72-1.58-3.65-2.84s-1.39-2.83-1.39-4.72Zm6.62-.05c0,.68.13,1.28.4,1.8.27.52.65.93,1.14,1.23s1.05.45,1.7.45,1.18-.15,1.66-.45c.48-.3.85-.71,1.12-1.23.27-.52.4-1.12.4-1.8s-.14-1.28-.42-1.8-.66-.93-1.14-1.23c-.48-.3-1.02-.45-1.64-.45-.64,0-1.21.15-1.7.45-.49.3-.87.71-1.14,1.23-.27.52-.4,1.12-.4,1.8Z"/>
        <path class="cls-3" d="m74.01,42.37v-4.83l9.23-7.63c.61-.51,1.14-.98,1.58-1.43.44-.45.78-.91,1.01-1.38.24-.48.36-1,.36-1.58,0-.64-.14-1.18-.41-1.63-.27-.45-.64-.8-1.12-1.04-.48-.25-1.02-.37-1.64-.37s-1.17.12-1.64.37c-.47.25-.84.62-1.09,1.1-.26.48-.39,1.07-.39,1.76h-6.38c0-1.74.39-3.24,1.17-4.49s1.88-2.22,3.31-2.9c1.43-.68,3.1-1.01,5.01-1.01s3.7.32,5.15.95c1.45.63,2.58,1.52,3.37,2.66.79,1.14,1.19,2.48,1.19,4.02,0,.95-.2,1.89-.59,2.83-.39.94-1.1,1.97-2.13,3.11-1.02,1.14-2.48,2.49-4.36,4.06l-2.32,1.93v.15h9.66v5.36h-18.99Z"/>
      </g>
    </g>
  </g>
</svg>