<?xml version="1.0" encoding="UTF-8"?>
<svg id="Layer_2" data-name="Layer 2" xmlns="http://www.w3.org/2000/svg" viewBox="0 0 120 60">
  <defs>
    <style>
      .cls-1 {
        fill: none;
      }

      .cls-1, .cls-2, .cls-3, .cls-4 {
        stroke-width: 0px;
      }

      .cls-2 {
        fill: #07f;
      }

      .cls-3 {
        fill: #f2f2f2;
      }

      .cls-4 {
        opacity: .85;
      }
    </style>
  </defs>
  <g id="Layer_1-2" data-name="Layer 1">
    <g>
      <rect class="cls-1" width="120" height="60"/>
      <rect class="cls-2" x="6.67" y="3.33" width="106.67" height="53.33" rx="26.67" ry="26.67"/>
      <path class="cls-4" d="m33.33,51.67c-11.95,0-21.67-9.72-21.67-21.67s9.72-21.67,21.67-21.67h53.33c11.95,0,21.67,9.72,21.67,21.67s-9.72,21.67-21.67,21.67h-53.33Z"/>
      <g>
        <path class="cls-3" d="m24.8,23.04v-5.41h15.32v5.41h-15.32Zm0,19.33v-5.41h15.32v5.41h-15.32Zm11.02-24.74v24.74h-6.72v-24.74h6.72Z"/>
        <path class="cls-3" d="m59.54,42.71c-2,0-3.78-.31-5.35-.93s-2.8-1.46-3.7-2.52c-.9-1.06-1.35-2.26-1.35-3.6,0-1.02.26-1.96.77-2.8.51-.85,1.2-1.55,2.07-2.11s1.84-.92,2.91-1.08v-.19c-1.41-.24-2.57-.87-3.47-1.88-.91-1.01-1.36-2.2-1.36-3.58,0-1.3.41-2.45,1.23-3.46.82-1.01,1.94-1.81,3.37-2.39,1.43-.58,3.05-.87,4.87-.87s3.44.29,4.87.88c1.42.58,2.55,1.38,3.37,2.39.82,1.01,1.23,2.16,1.23,3.45,0,1.39-.46,2.58-1.38,3.59-.92,1.01-2.07,1.63-3.45,1.87v.19c1.06.16,2.03.52,2.9,1.08.87.56,1.56,1.26,2.08,2.11.51.85.77,1.78.77,2.8,0,1.34-.45,2.54-1.35,3.6-.9,1.06-2.13,1.9-3.7,2.52s-3.35.93-5.34.93Zm0-4.64c.64,0,1.2-.13,1.69-.39.49-.26.88-.61,1.17-1.07s.43-.97.43-1.54-.14-1.08-.43-1.52-.67-.79-1.17-1.04c-.49-.25-1.05-.38-1.69-.38s-1.19.13-1.69.38c-.5.25-.89.6-1.17,1.04-.29.44-.43.95-.43,1.52s.14,1.08.43,1.53c.29.45.68.81,1.17,1.07s1.06.39,1.69.39Zm0-10.58c.56,0,1.06-.12,1.5-.35.43-.23.78-.56,1.03-.97.25-.41.37-.87.37-1.39s-.12-.97-.37-1.37c-.25-.4-.59-.71-1.03-.94-.44-.23-.93-.34-1.5-.34s-1.05.11-1.49.34c-.44.23-.78.54-1.03.94-.25.4-.38.86-.38,1.37s.12.98.38,1.38c.25.41.59.73,1.03.97.44.24.94.36,1.49.36Z"/>
        <path class="cls-3" d="m83.7,43.05c-2.25,0-4.19-.53-5.82-1.56s-2.9-2.52-3.78-4.46c-.89-1.94-1.33-4.27-1.32-6.98,0-2.72.45-5.03,1.33-6.93.88-1.9,2.14-3.35,3.77-4.34,1.63-.99,3.57-1.49,5.82-1.49s4.19.5,5.82,1.49,2.89,2.44,3.78,4.34c.89,1.9,1.33,4.21,1.32,6.92,0,2.73-.44,5.07-1.33,7.01-.89,1.94-2.14,3.42-3.77,4.45-1.63,1.03-3.57,1.54-5.82,1.54Zm0-5.46c1.16,0,2.11-.61,2.86-1.82.75-1.21,1.11-3.12,1.11-5.72,0-1.7-.17-3.09-.51-4.17-.34-1.08-.8-1.88-1.4-2.4-.6-.52-1.28-.78-2.05-.78-1.16,0-2.11.59-2.84,1.76-.73,1.18-1.11,3.04-1.12,5.58,0,1.73.16,3.16.5,4.27.34,1.12.81,1.94,1.41,2.47.6.53,1.29.8,2.06.8Z"/>
      </g>
    </g>
  </g>
</svg>