<?xml version="1.0" encoding="UTF-8"?>
<svg id="Layer_2" data-name="Layer 2" xmlns="http://www.w3.org/2000/svg" viewBox="0 0 90.71 90.71">
  <defs>
    <style>
      .cls-1 {
        fill: #3ccfff;
      }

      .cls-1, .cls-2, .cls-3 {
        stroke-width: 0px;
      }

      .cls-2 {
        fill: #f2f2f2;
      }

      .cls-3 {
        opacity: .85;
      }
    </style>
  </defs>
  <g id="Layer_1-2" data-name="Layer 1">
    <g>
      <rect class="cls-1" x="10.36" y="10.36" width="70" height="70" rx="10" ry="10" transform="translate(-18.79 45.36) rotate(-45)"/>
      <rect class="cls-3" x="15.36" y="15.36" width="60" height="60" rx="8.57" ry="8.57" transform="translate(-18.79 45.36) rotate(-45)"/>
      <g>
        <path class="cls-2" d="m35.57,34.02h6.07v15.55c0,1.48-.38,2.77-1.11,3.89-.73,1.12-1.75,1.99-3.03,2.61-1.29.62-2.77.94-4.45.94-1.45,0-2.78-.25-3.99-.76-1.2-.51-2.16-1.3-2.88-2.39s-1.07-2.5-1.06-4.25h6.16c.02.57.12,1.05.29,1.44.17.39.42.69.73.88s.7.29,1.15.29.84-.1,1.16-.3c.31-.2.55-.5.71-.89.16-.39.25-.88.25-1.47v-15.55Z"/>
        <path class="cls-2" d="m53.28,56.69h-8.72v-22.68h8.64c2.33,0,4.35.45,6.05,1.36,1.7.9,3.02,2.2,3.94,3.9.93,1.69,1.39,3.72,1.39,6.08s-.46,4.39-1.38,6.08c-.92,1.69-2.23,2.99-3.92,3.9s-3.69,1.36-5.99,1.36Zm-2.57-5.23h2.35c1.12,0,2.08-.18,2.87-.54.79-.36,1.4-.99,1.82-1.87.42-.89.62-2.12.62-3.7s-.21-2.81-.64-3.7c-.42-.89-1.04-1.51-1.86-1.87-.82-.36-1.81-.54-3-.54h-2.17v12.22Z"/>
      </g>
    </g>
  </g>
</svg>