<?xml version="1.0" encoding="UTF-8"?>
<svg id="Layer_2" data-name="Layer 2" xmlns="http://www.w3.org/2000/svg" viewBox="0 0 500 266.2">
  <defs>
    <style>
      .cls-1 {
        fill: none;
      }

      .cls-1, .cls-2, .cls-3 {
        stroke-width: 0px;
      }

      .cls-2 {
        fill: #ccc;
      }

      .cls-3 {
        fill: #f2f2f2;
      }
    </style>
  </defs>
  <g id="Layer_1-2" data-name="Layer 1">
    <g>
      <rect class="cls-1" width="500" height="266.2"/>
      <g>
        <g>
          <polygon class="cls-2" points="351.37 31.06 333.11 78.64 380.77 78.64 338.16 189.65 389.12 189.65 450 31.06 351.37 31.06"/>
          <polygon class="cls-2" points="129.3 31.06 129.3 78.64 196.66 78.64 196.66 189.65 244.24 189.65 244.24 78.64 271.36 78.64 289.62 31.06 129.3 31.06"/>
          <path class="cls-3" d="m289.62,31.06l-31.07,80.93-1.36,3.54c-2.08,5.82-3.26,12.07-3.26,18.61,0,20.84,11.5,38.97,28.48,48.46,8,4.47,17.21,7.04,27.03,7.04,30.66,0,55.51-24.85,55.51-55.51,0-26.41-18.46-48.47-43.17-54.08l18.81-49h-50.96Z"/>
          <path class="cls-3" d="m129.3,78.64c17.49,0,31.72,14.23,31.72,31.72s-14.23,31.72-31.72,31.72-31.72-14.23-31.72-31.72,14.23-31.72,31.72-31.72m0-47.58c-43.79,0-79.3,35.5-79.3,79.3s35.5,79.3,79.3,79.3,79.3-35.5,79.3-79.3S173.09,31.06,129.3,31.06h0Z"/>
        </g>
        <g>
          <path class="cls-3" d="m100.93,244.06c-5.37,0-9.54-3.57-9.54-10.08s4.18-10.08,9.54-10.08,9.54,3.53,9.54,10.08-4.22,10.08-9.54,10.08Zm0-15.52c-2.64,0-4.06,1.92-4.06,5.44s1.42,5.44,4.06,5.44,4.06-1.92,4.06-5.44-1.42-5.44-4.06-5.44Z"/>
          <path class="cls-3" d="m111.47,224.16h17.06v4.29h-5.9v15.33h-5.25v-15.33h-5.9v-4.29Z"/>
          <path class="cls-3" d="m129.97,224.16h17.06v4.29h-5.9v15.33h-5.25v-15.33h-5.9v-4.29Z"/>
          <path class="cls-3" d="m145.87,243.79l6.48-19.62h7.28l6.48,19.62h-5.75l-1.13-3.76h-6.48l-1.13,3.76h-5.75Zm12.15-7.74l-1.96-6.48h-.15l-1.96,6.48h4.06Z"/>
          <path class="cls-3" d="m164.87,224.16h5.94l2.68,12.07h.15l3.18-12.07h4.68l3.18,12.11h.15l2.68-12.11h5.94l-5.79,19.62h-5.1l-3.33-10.96h-.15l-3.33,10.96h-5.1l-5.79-19.62Z"/>
          <path class="cls-3" d="m192.23,243.79l6.48-19.62h7.28l6.48,19.62h-5.75l-1.13-3.76h-6.48l-1.13,3.76h-5.75Zm12.15-7.74l-1.95-6.48h-.15l-1.95,6.48h4.06Z"/>
          <path class="cls-3" d="m219.16,224.16h17.06v4.29h-5.9v15.33h-5.25v-15.33h-5.9v-4.29Z"/>
          <path class="cls-3" d="m238.2,224.16h8.47c4.36,0,7.28,2.49,7.28,6.67,0,2.72-1.25,4.63-3.33,5.63l3.99,7.32h-5.79l-3.45-6.48h-1.84v6.48h-5.33v-19.62Zm7.21,9.01c1.87,0,2.99-.66,2.99-2.34s-1.12-2.42-2.99-2.42h-1.88v4.75h1.88Z"/>
          <path class="cls-3" d="m255.56,243.79l6.48-19.62h7.28l6.48,19.62h-5.75l-1.13-3.76h-6.48l-1.13,3.76h-5.75Zm12.15-7.74l-1.95-6.48h-.15l-1.95,6.48h4.06Z"/>
          <path class="cls-3" d="m294.65,243.79h-4.45l-7.09-10.31h-.12v10.31h-5.33v-19.62h4.52l6.98,10.27h.15v-10.27h5.33v19.62Z"/>
          <path class="cls-3" d="m305.1,228.26c-1.65,0-2.37.63-2.38,1.49-.05.94.79,1.49,2.65,1.88l1.61.34c4.33.93,6.11,3.03,6.13,6.02-.02,3.87-3,6.02-7.97,6.02s-8.45-2.2-8.47-7.13h5.06c.09,1.8,1.29,2.76,3.33,2.76,1.71,0,2.59-.68,2.61-1.65-.02-.89-.77-1.44-2.95-1.92l-1.96-.42c-3.48-.75-5.61-2.45-5.6-5.52-.03-3.74,3.27-6.25,7.93-6.25s7.72,2.55,7.74,6.4h-5.1c-.11-1.27-.92-2.03-2.64-2.03Z"/>
          <path class="cls-3" d="m320.46,243.79h-5.33v-19.62h5.33v19.62Z"/>
          <path class="cls-3" d="m322.45,224.16h17.06v4.29h-5.9v15.33h-5.25v-15.33h-5.9v-4.29Z"/>
          <path class="cls-3" d="m346.9,239.96l7.32-6.06c1.45-1.2,2.34-2.1,2.34-3.49,0-1.5-1.04-2.42-2.51-2.42s-2.48.92-2.47,2.57h-5.06c0-4.13,2.96-6.67,7.53-6.67s7.7,2.4,7.7,6.06c0,2.27-1.14,4.21-5.62,7.93l-1.84,1.53v.11h7.67v4.25h-15.06v-3.83Z"/>
          <path class="cls-3" d="m364.21,234.01c.02-6.48,3.32-10.12,8.66-10.12s8.67,3.66,8.66,10.12c0,6.5-3.33,10.32-8.66,10.31-5.35,0-8.68-3.84-8.66-10.31Zm11.81,0c0-4.03-1.3-5.83-3.14-5.83s-3.12,1.79-3.14,5.83c-.02,4.13,1.3,5.98,3.14,5.98s3.15-1.85,3.14-5.98Z"/>
          <path class="cls-3" d="m383.71,234.21c.02-6.36,3.4-10.31,8.55-10.31,4.33,0,7.25,2.78,7.59,6.13h-5.25c-.24-1.11-1.22-1.61-2.34-1.61-2.24,0-3.24,2.12-3.26,5.29h.12c.75-1.8,2.78-2.87,5.02-2.87,3.56,0,5.96,2.62,5.94,6.21.02,4.23-3.22,7.01-7.86,7.01s-8.53-2.72-8.51-9.85Zm11.19,3.03c.02-1.62-1.13-2.8-2.72-2.8s-2.7,1.18-2.72,2.8c.02,1.62,1.17,2.8,2.72,2.8s2.74-1.18,2.72-2.8Z"/>
          <path class="cls-3" d="m411.07,228.53v-.11h-9.04v-4.25h14.56v4.25l-7.74,15.37h-5.48l7.7-15.26Z"/>
        </g>
      </g>
    </g>
  </g>
</svg>