<?xml version="1.0" encoding="UTF-8"?>
<svg id="Layer_2" data-name="Layer 2" xmlns="http://www.w3.org/2000/svg" viewBox="0 0 90 90">
  <defs>
    <style>
      .cls-1 {
        fill: none;
      }

      .cls-1, .cls-2, .cls-3 {
        stroke-width: 0px;
      }

      .cls-2 {
        fill: #00d05d;
      }

      .cls-3 {
        fill: #f2f2f2;
      }
    </style>
  </defs>
  <g id="Layer_1-2" data-name="Layer 1">
    <g>
      <circle class="cls-3" cx="45" cy="45" r="40"/>
      <circle class="cls-2" cx="45" cy="45" r="35"/>
      <path class="cls-3" d="m65.05,46.13c0,4.59-.89,8.46-2.68,11.61-1.79,3.15-4.19,5.53-7.23,7.15-3.03,1.62-6.42,2.43-10.15,2.43s-7.15-.81-10.18-2.45-5.43-4.02-7.21-7.17-2.67-7-2.67-11.57.89-8.46,2.67-11.61c1.78-3.15,4.18-5.53,7.21-7.15s6.42-2.43,10.18-2.43,7.11.81,10.15,2.43,5.44,4,7.23,7.15c1.78,3.15,2.68,7.02,2.68,11.61Zm-11.52,0c0-2.47-.33-4.55-.98-6.25-.65-1.7-1.61-2.99-2.88-3.87-1.27-.88-2.83-1.32-4.68-1.32s-3.41.44-4.68,1.32c-1.27.88-2.23,2.17-2.88,3.87-.65,1.7-.98,3.78-.98,6.25s.33,4.55.98,6.25c.65,1.7,1.61,2.99,2.88,3.87,1.27.88,2.83,1.32,4.68,1.32s3.41-.44,4.68-1.32c1.27-.88,2.23-2.17,2.88-3.87.65-1.7.98-3.78.98-6.25Z"/>
      <rect class="cls-1" width="90" height="90"/>
    </g>
  </g>
</svg>