<?xml version="1.0" encoding="UTF-8"?>
<svg id="Layer_2" data-name="Layer 2" xmlns="http://www.w3.org/2000/svg" viewBox="0 0 90.71 90.71">
  <defs>
    <style>
      .cls-1 {
        fill: #c89800;
      }

      .cls-1, .cls-2, .cls-3 {
        stroke-width: 0px;
      }

      .cls-2 {
        fill: #f2f2f2;
      }

      .cls-3 {
        opacity: .85;
      }
    </style>
  </defs>
  <g id="Layer_1-2" data-name="Layer 1">
    <g>
      <rect class="cls-1" x="10.36" y="10.36" width="70" height="70" rx="10" ry="10" transform="translate(-18.79 45.36) rotate(-45)"/>
      <rect class="cls-3" x="15.36" y="15.36" width="60" height="60" rx="8.57" ry="8.57" transform="translate(-18.79 45.36) rotate(-45)"/>
      <g>
        <path class="cls-2" d="m28.72,56.69v-22.68h9.79c1.68,0,3.16.33,4.42,1s2.24,1.6,2.95,2.8,1.05,2.61,1.05,4.22-.36,3.03-1.08,4.22-1.73,2.1-3.02,2.75c-1.29.64-2.81.96-4.53.96h-5.85v-4.78h4.61c.72,0,1.34-.13,1.86-.38.51-.25.91-.62,1.18-1.09.28-.47.42-1.03.42-1.67s-.14-1.21-.42-1.67c-.28-.46-.67-.82-1.18-1.06-.51-.25-1.13-.37-1.86-.37h-2.17v17.76h-6.16Z"/>
        <path class="cls-2" d="m48.57,38.98v-4.96h14.04v4.96h-14.04Zm0,17.72v-4.96h14.04v4.96h-14.04Zm10.1-22.68v22.68h-6.16v-22.68h6.16Z"/>
      </g>
    </g>
  </g>
</svg>