<?xml version="1.0" encoding="UTF-8"?>
<svg id="Layer_2" data-name="Layer 2" xmlns="http://www.w3.org/2000/svg" viewBox="0 0 90.71 90.71">
  <defs>
    <style>
      .cls-1 {
        fill: #c89800;
      }

      .cls-1, .cls-2, .cls-3 {
        stroke-width: 0px;
      }

      .cls-2 {
        fill: #f2f2f2;
      }

      .cls-3 {
        opacity: .85;
      }
    </style>
  </defs>
  <g id="Layer_1-2" data-name="Layer 1">
    <g>
      <rect class="cls-1" x="10.36" y="10.36" width="70" height="70" rx="10" ry="10" transform="translate(-18.79 45.36) rotate(-45)"/>
      <rect class="cls-3" x="15.36" y="15.36" width="60" height="60" rx="8.57" ry="8.57" transform="translate(-18.79 45.36) rotate(-45)"/>
      <g>
        <path class="cls-2" d="m25.09,38.98v-4.96h19.71v4.96h-6.82v17.72h-6.07v-17.72h-6.82Z"/>
        <path class="cls-2" d="m47.11,56.69v-22.68h9.79c1.68,0,3.16.31,4.42.92,1.26.61,2.24,1.49,2.95,2.65.7,1.15,1.05,2.53,1.05,4.14s-.36,2.99-1.08,4.11c-.72,1.11-1.73,1.96-3.02,2.52-1.29.57-2.81.85-4.53.85h-5.85v-4.78h4.61c.72,0,1.34-.09,1.86-.27.51-.18.91-.47,1.18-.87s.42-.92.42-1.56-.14-1.18-.42-1.59c-.28-.41-.67-.71-1.18-.91-.51-.2-1.13-.29-1.86-.29h-2.17v17.76h-6.16Zm13.29-10.41l5.67,10.41h-6.69l-5.54-10.41h6.55Z"/>
      </g>
    </g>
  </g>
</svg>