<?xml version="1.0" encoding="UTF-8"?>
<svg id="Layer_2" data-name="Layer 2" xmlns="http://www.w3.org/2000/svg" viewBox="0 0 135 90">
  <defs>
    <style>
      .cls-1 {
        fill: #00a99d;
      }

      .cls-1, .cls-2, .cls-3 {
        stroke-width: 0px;
      }

      .cls-2 {
        fill: none;
      }

      .cls-4 {
        letter-spacing: -.09em;
      }

      .cls-5 {
        fill: #f2f2f2;
        font-family: InterV-Black, 'Inter V';
        font-size: 37.8px;
        font-variation-settings: 'wght' 900, 'slnt' 0;
        font-weight: 800;
      }

      .cls-3 {
        opacity: .85;
      }
    </style>
  </defs>
  <g id="Layer_1-2" data-name="Layer 1">
    <g>
      <rect class="cls-2" width="135" height="90"/>
      <path class="cls-1" d="m87.5,85c2.26,0,4.51-.86,6.24-2.58l31.18-31.18c3.44-3.44,3.44-9.03,0-12.47l-31.18-31.18c-1.72-1.72-3.98-2.58-6.24-2.58h-40c-2.26,0-4.51.86-6.24,2.58l-31.18,31.18c-3.44,3.44-3.44,9.03,0,12.47l31.18,31.18c1.72,1.72,3.98,2.58,6.24,2.58h40Z"/>
      <path class="cls-3" d="m47.5,80.56c-1.17,0-2.27-.45-3.09-1.28l-31.18-31.18c-.83-.83-1.28-1.93-1.28-3.09s.45-2.27,1.28-3.09l31.18-31.18c.83-.83,1.92-1.28,3.09-1.28h40c1.17,0,2.27.45,3.09,1.28l31.18,31.18c.83.83,1.28,1.93,1.28,3.09s-.45,2.27-1.28,3.09l-31.18,31.18c-.83.83-1.93,1.28-3.09,1.28h-40Z"/>
      <text class="cls-5" transform="translate(33.41 58.74)"><tspan class="cls-4" x="0" y="0">W</tspan><tspan x="38.12" y="0">A</tspan></text>
    </g>
  </g>
</svg>